<svg xmlns="http://www.w3.org/2000/svg" width="1200" height="300" viewBox="0 0 1200 300">
  <defs>
    <linearGradient id="bg" x1="0%" y1="0%" x2="100%" y2="100%">
      <stop offset="0%" style="stop-color:#0f0f23;stop-opacity:1" />
      <stop offset="50%" style="stop-color:#1a1a3e;stop-opacity:1" />
      <stop offset="100%" style="stop-color:#0d1b2a;stop-opacity:1" />
    </linearGradient>
    <linearGradient id="accent" x1="0%" y1="0%" x2="100%" y2="0%">
      <stop offset="0%" style="stop-color:#00d4ff;stop-opacity:1" />
      <stop offset="50%" style="stop-color:#7c3aed;stop-opacity:1" />
      <stop offset="100%" style="stop-color:#f43f5e;stop-opacity:1" />
    </linearGradient>
    <linearGradient id="accent2" x1="0%" y1="0%" x2="100%" y2="0%">
      <stop offset="0%" style="stop-color:#00d4ff;stop-opacity:0.3" />
      <stop offset="100%" style="stop-color:#7c3aed;stop-opacity:0.3" />
    </linearGradient>
  </defs>

  <rect width="1200" height="300" fill="url(#bg)"/>

  <circle cx="100" cy="50" r="2" fill="#00d4ff" opacity="0.4"/>
  <circle cx="200" cy="80" r="1.5" fill="#7c3aed" opacity="0.3"/>
  <circle cx="350" cy="30" r="1" fill="#f43f5e" opacity="0.5"/>
  <circle cx="500" cy="60" r="2" fill="#00d4ff" opacity="0.2"/>
  <circle cx="700" cy="40" r="1.5" fill="#7c3aed" opacity="0.4"/>
  <circle cx="850" cy="70" r="1" fill="#f43f5e" opacity="0.3"/>
  <circle cx="1000" cy="45" r="2" fill="#00d4ff" opacity="0.5"/>
  <circle cx="1100" cy="25" r="1.5" fill="#7c3aed" opacity="0.2"/>
  <circle cx="150" cy="250" r="1" fill="#f43f5e" opacity="0.4"/>
  <circle cx="400" cy="270" r="2" fill="#00d4ff" opacity="0.3"/>
  <circle cx="600" cy="260" r="1.5" fill="#7c3aed" opacity="0.5"/>
  <circle cx="900" cy="240" r="1" fill="#f43f5e" opacity="0.2"/>
  <circle cx="1050" cy="265" r="2" fill="#00d4ff" opacity="0.4"/>

  <line x1="80" y1="200" x2="180" y2="200" stroke="url(#accent2)" stroke-width="1"/>
  <line x1="180" y1="200" x2="230" y2="160" stroke="url(#accent2)" stroke-width="1"/>
  <line x1="230" y1="160" x2="330" y2="180" stroke="url(#accent2)" stroke-width="1"/>
  <circle cx="80" cy="200" r="3" fill="#00d4ff" opacity="0.5"/>
  <circle cx="180" cy="200" r="3" fill="#7c3aed" opacity="0.5"/>
  <circle cx="230" cy="160" r="3" fill="#f43f5e" opacity="0.5"/>
  <circle cx="330" cy="180" r="3" fill="#00d4ff" opacity="0.5"/>

  <line x1="870" y1="180" x2="950" y2="160" stroke="url(#accent2)" stroke-width="1"/>
  <line x1="950" y1="160" x2="1020" y2="190" stroke="url(#accent2)" stroke-width="1"/>
  <line x1="1020" y1="190" x2="1100" y2="170" stroke="url(#accent2)" stroke-width="1"/>
  <circle cx="870" cy="180" r="3" fill="#7c3aed" opacity="0.5"/>
  <circle cx="950" cy="160" r="3" fill="#00d4ff" opacity="0.5"/>
  <circle cx="1020" cy="190" r="3" fill="#f43f5e" opacity="0.5"/>
  <circle cx="1100" cy="170" r="3" fill="#7c3aed" opacity="0.5"/>

  <text x="600" y="105" font-family="system-ui, -apple-system, 'Segoe UI', sans-serif" font-size="48" font-weight="800" fill="white" text-anchor="middle" letter-spacing="-1">
    AI Engineering from Scratch
  </text>

  <rect x="350" y="125" width="500" height="3" rx="1.5" fill="url(#accent)" opacity="0.8"/>

  <text x="600" y="165" font-family="system-ui, -apple-system, 'Segoe UI', sans-serif" font-size="20" fill="#94a3b8" text-anchor="middle" letter-spacing="3">
    LEARN IT. BUILD IT. SHIP IT FOR OTHERS.
  </text>

  <text x="600" y="210" font-family="system-ui, -apple-system, 'Segoe UI', sans-serif" font-size="14" fill="#64748b" text-anchor="middle">
    200+ lessons  |  20 phases  |  Python, TypeScript, Rust, Julia  |  Math to Agent Swarms
  </text>

  <rect x="415" y="235" width="80" height="28" rx="14" fill="none" stroke="#00d4ff" stroke-width="1" opacity="0.6"/>
  <text x="455" y="253" font-family="monospace" font-size="11" fill="#00d4ff" text-anchor="middle">Python</text>

  <rect x="510" y="235" width="100" height="28" rx="14" fill="none" stroke="#7c3aed" stroke-width="1" opacity="0.6"/>
  <text x="560" y="253" font-family="monospace" font-size="11" fill="#7c3aed" text-anchor="middle">TypeScript</text>

  <rect x="625" y="235" width="65" height="28" rx="14" fill="none" stroke="#f43f5e" stroke-width="1" opacity="0.6"/>
  <text x="657" y="253" font-family="monospace" font-size="11" fill="#f43f5e" text-anchor="middle">Rust</text>

  <rect x="705" y="235" width="65" height="28" rx="14" fill="none" stroke="#10b981" stroke-width="1" opacity="0.6"/>
  <text x="737" y="253" font-family="monospace" font-size="11" fill="#10b981" text-anchor="middle">Julia</text>
</svg>
